<?xml version="1.0" encoding="UTF-8" standalone="no"?>
<!-- Created with Inkscape (http://www.inkscape.org/) -->

<svg
   xmlns:dc="http://purl.org/dc/elements/1.1/"
   xmlns:cc="http://creativecommons.org/ns#"
   xmlns:rdf="http://www.w3.org/1999/02/22-rdf-syntax-ns#"
   xmlns:svg="http://www.w3.org/2000/svg"
   xmlns="http://www.w3.org/2000/svg"
   xmlns:sodipodi="http://sodipodi.sourceforge.net/DTD/sodipodi-0.dtd"
   xmlns:inkscape="http://www.inkscape.org/namespaces/inkscape"
   width="1024"
   height="350"
   viewBox="0 0 1024 0"
   id="svg4143"
   version="1.1"
   inkscape:version="0.91 r13725"
   sodipodi:docname="background-waves.svg"
   inkscape:export-filename="/Users/edwardwallace/Repos/drummondlab.github.io/assets/themes/lab/images/banner/background-waves.png"
   inkscape:export-xdpi="300.03299"
   inkscape:export-ydpi="300.03299">
  <defs
     id="defs4145" />
  <sodipodi:namedview
     id="base"
     pagecolor="#ffffff"
     bordercolor="#666666"
     borderopacity="1.0"
     inkscape:pageopacity="0"
     inkscape:pageshadow="2"
     inkscape:zoom="0.5"
     inkscape:cx="533.00001"
     inkscape:cy="174.99998"
     inkscape:document-units="px"
     inkscape:current-layer="g9088"
     showgrid="false"
     units="px"
     inkscape:window-width="1280"
     inkscape:window-height="751"
     inkscape:window-x="0"
     inkscape:window-y="1"
     inkscape:window-maximized="1" />
  <metadata
     id="metadata4148">
    <rdf:RDF>
      <cc:Work
         rdf:about="">
        <dc:format>image/svg+xml</dc:format>
        <dc:type
           rdf:resource="http://purl.org/dc/dcmitype/StillImage" />
        <dc:title></dc:title>
      </cc:Work>
    </rdf:RDF>
  </metadata>
  <g
     inkscape:label="Layer 1"
     inkscape:groupmode="layer"
     id="layer1"
     transform="translate(0,-802.3622)">
    <g
       style="display:inline"
       id="g9088"
       transform="matrix(0,-3.4833122,3.4833119,0,-424.46055,1230.2825)">
      <path
         sodipodi:nodetypes="ccccc"
         d="m 23.220774,380.78129 c 9.832806,-4.52154 14.34216,-4.87251 24.494279,-0.24802 10.105859,4.64392 14.527429,4.94272 24.894079,0.19853 9.89865,-4.53557 14.393362,-4.76618 24.494295,-0.14827 10.174073,4.66663 14.595693,4.82373 24.894063,0.0988"
         style="fill:none;stroke:#d7eef4;stroke-width:1.68059886;stroke-linecap:round;stroke-linejoin:round;stroke-miterlimit:10;stroke-dasharray:none;stroke-opacity:1"
         id="path7000"
         inkscape:connector-curvature="0" />
      <path
         inkscape:connector-curvature="0"
         id="path4715"
         style="fill:none;stroke:#d7eef4;stroke-width:1.68059886;stroke-linecap:round;stroke-linejoin:round;stroke-miterlimit:10;stroke-dasharray:none;stroke-opacity:1"
         d="m 23.220774,352.81939 c 9.832806,-4.52154 14.34216,-4.87251 24.494279,-0.24802 10.105859,4.64392 14.527429,4.94272 24.894079,0.19853 9.89865,-4.53557 14.393362,-4.76618 24.494295,-0.14827 10.174073,4.66663 14.595693,4.82373 24.894063,0.0988"
         sodipodi:nodetypes="ccccc" />
      <path
         sodipodi:nodetypes="ccccc"
         d="m 23.220774,324.85749 c 9.832806,-4.52154 14.34216,-4.87251 24.494279,-0.24802 10.105859,4.64392 14.527429,4.94272 24.894079,0.19853 9.89865,-4.53557 14.393362,-4.76618 24.494295,-0.14827 10.174073,4.66663 14.595693,4.82373 24.894063,0.0988"
         style="fill:none;stroke:#d7eef4;stroke-width:1.68059886;stroke-linecap:round;stroke-linejoin:round;stroke-miterlimit:10;stroke-dasharray:none;stroke-opacity:1"
         id="path4717"
         inkscape:connector-curvature="0" />
      <path
         inkscape:connector-curvature="0"
         id="path4719"
         style="fill:none;stroke:#d7eef4;stroke-width:1.68059886;stroke-linecap:round;stroke-linejoin:round;stroke-miterlimit:10;stroke-dasharray:none;stroke-opacity:1"
         d="m 23.220774,296.8956 c 9.832806,-4.52154 14.34216,-4.87251 24.494279,-0.24802 10.105859,4.64392 14.527429,4.94272 24.894079,0.19853 9.89865,-4.53557 14.393362,-4.76618 24.494295,-0.14827 10.174073,4.66663 14.595693,4.82373 24.894063,0.0988"
         sodipodi:nodetypes="ccccc" />
      <path
         sodipodi:nodetypes="ccccc"
         d="m 23.220774,268.9337 c 9.832806,-4.52154 14.34216,-4.87251 24.494279,-0.24802 10.105859,4.64392 14.527429,4.94272 24.894079,0.19853 9.89865,-4.53557 14.393362,-4.76618 24.494295,-0.14827 10.174073,4.66663 14.595693,4.82373 24.894063,0.0988"
         style="fill:none;stroke:#d7eef4;stroke-width:1.68059886;stroke-linecap:round;stroke-linejoin:round;stroke-miterlimit:10;stroke-dasharray:none;stroke-opacity:1"
         id="path4721"
         inkscape:connector-curvature="0" />
      <path
         inkscape:connector-curvature="0"
         id="path4723"
         style="fill:none;stroke:#d7eef4;stroke-width:1.68059886;stroke-linecap:round;stroke-linejoin:round;stroke-miterlimit:10;stroke-dasharray:none;stroke-opacity:1"
         d="m 23.220774,240.97181 c 9.832806,-4.52154 14.34216,-4.87251 24.494279,-0.24802 10.105859,4.64392 14.527429,4.94272 24.894079,0.19853 9.89865,-4.53557 14.393362,-4.76618 24.494295,-0.14827 10.174073,4.66663 14.595693,4.82373 24.894063,0.0988"
         sodipodi:nodetypes="ccccc" />
      <path
         sodipodi:nodetypes="ccccc"
         d="m 23.220774,213.00992 c 9.832806,-4.52154 14.34216,-4.87251 24.494279,-0.24802 10.105859,4.64392 14.527429,4.94272 24.894079,0.19853 9.89865,-4.53557 14.393362,-4.76618 24.494295,-0.14827 10.174073,4.66663 14.595693,4.82373 24.894063,0.0988"
         style="fill:none;stroke:#d7eef4;stroke-width:1.68059886;stroke-linecap:round;stroke-linejoin:round;stroke-miterlimit:10;stroke-dasharray:none;stroke-opacity:1"
         id="path4725"
         inkscape:connector-curvature="0" />
      <path
         inkscape:connector-curvature="0"
         id="path4727"
         style="fill:none;stroke:#d7eef4;stroke-width:1.68059886;stroke-linecap:round;stroke-linejoin:round;stroke-miterlimit:10;stroke-dasharray:none;stroke-opacity:1"
         d="m 23.220774,185.04802 c 9.832806,-4.52154 14.34216,-4.87251 24.494279,-0.24802 10.105859,4.64392 14.527429,4.94272 24.894079,0.19853 9.89865,-4.53557 14.393362,-4.76618 24.494295,-0.14827 10.174073,4.66663 14.595693,4.82373 24.894063,0.0988"
         sodipodi:nodetypes="ccccc" />
      <path
         sodipodi:nodetypes="ccccc"
         d="m 23.220774,157.08612 c 9.832806,-4.52154 14.34216,-4.87251 24.494279,-0.24802 10.105859,4.64392 14.527429,4.94272 24.894079,0.19853 9.89865,-4.53557 14.393362,-4.76618 24.494295,-0.14827 10.174073,4.66663 14.595693,4.82373 24.894063,0.0988"
         style="fill:none;stroke:#d7eef4;stroke-width:1.68059886;stroke-linecap:round;stroke-linejoin:round;stroke-miterlimit:10;stroke-dasharray:none;stroke-opacity:1"
         id="path4729"
         inkscape:connector-curvature="0" />
      <path
         inkscape:connector-curvature="0"
         id="path4731"
         style="fill:none;stroke:#d7eef4;stroke-width:1.68059886;stroke-linecap:round;stroke-linejoin:round;stroke-miterlimit:10;stroke-dasharray:none;stroke-opacity:1"
         d="m 23.220774,129.12423 c 9.832806,-4.52154 14.34216,-4.87251 24.494279,-0.24802 10.105859,4.64392 14.527429,4.94272 24.894079,0.19853 9.89865,-4.53557 14.393362,-4.76618 24.494295,-0.14827 10.174073,4.66663 14.595693,4.82373 24.894063,0.0988"
         sodipodi:nodetypes="ccccc" />
      <path
         sodipodi:nodetypes="ccccc"
         d="m 23.220774,408.74318 c 9.832806,-4.52154 14.34216,-4.87251 24.494279,-0.24802 10.105859,4.64392 14.527429,4.94272 24.894079,0.19853 9.89865,-4.53557 14.393362,-4.76618 24.494295,-0.14827 10.174073,4.66663 14.595693,4.82373 24.894063,0.0988"
         style="fill:none;stroke:#d7eef4;stroke-width:1.68059886;stroke-linecap:round;stroke-linejoin:round;stroke-miterlimit:10;stroke-dasharray:none;stroke-opacity:1"
         id="path4733"
         inkscape:connector-curvature="0" />
    </g>
  </g>
</svg>
